<?xml version="1.0" encoding="UTF-8"?>
<svg id="Layer_1" data-name="Layer 1" xmlns="http://www.w3.org/2000/svg" viewBox="0 0 100 100">
  <defs>
    <style>
      .cls-1, .cls-2, .cls-3, .cls-4, .cls-5 {
        fill: none;
        stroke: #bdbcbc;
      }

      .cls-1, .cls-2, .cls-3, .cls-4, .cls-5, .cls-6, .cls-7 {
        stroke-miterlimit: 10;
      }

      .cls-1, .cls-2, .cls-3, .cls-4, .cls-5, .cls-8 {
        stroke-linecap: round;
      }

      .cls-2 {
        stroke-width: 1.05px;
      }

      .cls-3 {
        stroke-width: .95px;
      }

      .cls-4 {
        stroke-width: .9px;
      }

      .cls-5 {
        stroke-width: 1.1px;
      }

      .cls-6, .cls-8, .cls-7 {
        fill: #fff;
        stroke: #7a7a7a;
      }

      .cls-8 {
        stroke-linejoin: round;
        stroke-width: 2px;
      }

      .cls-9 {
        fill: #606060;
      }

      .cls-7 {
        stroke-width: 1.5px;
      }
    </style>
  </defs>
  <polygon class="cls-8" points="73.26 87.2 7.48 77.87 7.48 18.33 73.11 16.43 73.26 87.2"/>
  <rect class="cls-8" x="73.11" y="16.43" width="13.04" height="70.76"/>
  <rect class="cls-9" x="80.17" y="20.77" width="4.28" height="3.73" rx=".86" ry=".86"/>
  <rect class="cls-7" x="83.04" y="20" width="10.63" height="5.27" rx=".96" ry=".96"/>
  <ellipse class="cls-6" cx="93.18" cy="22.63" rx="1.45" ry="2.64"/>
  <line class="cls-4" x1="11.7" y1="72.46" x2="11.7" y2="24.35"/>
  <line class="cls-4" x1="13.97" y1="72.79" x2="13.97" y2="24.35"/>
  <line class="cls-4" x1="16.07" y1="72.94" x2="16.07" y2="24.35"/>
  <line class="cls-4" x1="18.22" y1="24.24" x2="18.22" y2="73.42"/>
  <line class="cls-3" x1="20.4" y1="24.08" x2="20.4" y2="73.64"/>
  <line class="cls-3" x1="22.72" y1="24" x2="22.72" y2="73.96"/>
  <line class="cls-3" x1="25.2" y1="23.91" x2="25.2" y2="74.28"/>
  <line class="cls-3" x1="27.52" y1="23.91" x2="27.52" y2="74.61"/>
  <line class="cls-3" x1="30.13" y1="23.83" x2="30.13" y2="74.94"/>
  <line class="cls-1" x1="32.57" y1="23.67" x2="32.57" y2="75.33"/>
  <line class="cls-1" x1="35.15" y1="23.54" x2="35.15" y2="75.64"/>
  <line class="cls-1" x1="38.05" y1="23.54" x2="38.05" y2="76.09"/>
  <line class="cls-1" x1="41.07" y1="23.46" x2="41.07" y2="76.48"/>
  <line class="cls-1" x1="43.95" y1="23.32" x2="43.95" y2="76.89"/>
  <line class="cls-2" x1="46.99" y1="23.16" x2="46.99" y2="77.44"/>
  <line class="cls-2" x1="50.2" y1="22.96" x2="50.2" y2="77.83"/>
  <line class="cls-2" x1="53.4" y1="22.96" x2="53.4" y2="78.19"/>
  <line class="cls-2" x1="56.67" y1="22.77" x2="56.67" y2="78.64"/>
  <line class="cls-2" x1="60.25" y1="22.77" x2="60.25" y2="79.11"/>
  <line class="cls-5" x1="64.17" y1="22.6" x2="64.17" y2="79.74"/>
  <line class="cls-5" x1="67.91" y1="22.41" x2="67.91" y2="80.23"/>
</svg>