<?xml version="1.0" encoding="UTF-8" standalone="no"?>
<svg
   id="Layer_1"
   data-name="Layer 1"
   viewBox="0 0 100 100"
   version="1.1"
   sodipodi:docname="Gliederheizkörper.svg"
   inkscape:version="1.2.2 (732a01da63, 2022-12-09)"
   xmlns:inkscape="http://www.inkscape.org/namespaces/inkscape"
   xmlns:sodipodi="http://sodipodi.sourceforge.net/DTD/sodipodi-0.dtd"
   xmlns="http://www.w3.org/2000/svg"
   xmlns:svg="http://www.w3.org/2000/svg">
  <defs
     id="defs35" />
  <sodipodi:namedview
     id="namedview33"
     pagecolor="#ffffff"
     bordercolor="#000000"
     borderopacity="0.25"
     inkscape:showpageshadow="2"
     inkscape:pageopacity="0.0"
     inkscape:pagecheckerboard="0"
     inkscape:deskcolor="#d1d1d1"
     showgrid="false"
     inkscape:zoom="7.4458344"
     inkscape:cx="27.196415"
     inkscape:cy="51.57246"
     inkscape:window-width="2560"
     inkscape:window-height="1369"
     inkscape:window-x="-8"
     inkscape:window-y="-8"
     inkscape:window-maximized="1"
     inkscape:current-layer="g557" />
  <g
     id="g557"
     transform="matrix(1.1987448,0,0,1.1987448,-15.14133,-6.8321366)">
    <path
       d="m 45.852037,77.526824 c 0,0 -1.57,2.15 -2.93,1.71 -1.36,-0.44 -1.3,-1.34 -1.3,-3.4 v -54.87 c 0,0 -0.36,-1.27 0.28,-2.46 0.46,-0.85 1.8,-1.95 2.71,-2.46 0.91,-0.51 2.2,-0.83 2.89,-0.58 0.78,0.28 1.34,1.36 1.34,1.36"
       fill="#ffffff"
       stroke="#7a7a7a"
       stroke-miterlimit="10"
       id="path4" />
    <path
       d="m 32.141259,76.977716 c 0,0 -2.18,1.59 -3.53,1.14 -1.35,-0.45 -1.3,-1.34 -1.3,-3.4 v -54.86 c 0,0 -0.36,-1.27 0.28,-2.46 0.46,-0.85 1.8,-1.95 2.71,-2.46 0.91,-0.51 2.2,-0.83 2.89,-0.58 0.78,0.28 1.34,1.36 1.34,1.36"
       fill="#ffffff"
       stroke="#7a7a7a"
       stroke-miterlimit="10"
       id="path812" />
    <path
       d="m 37.032037,77.453048 c 0,0 -2.18,1.59 -3.53,1.14 -1.35,-0.45 -1.3,-1.34 -1.3,-3.4 v -54.86 c 0,0 -0.36,-1.27 0.28,-2.46 0.46,-0.85 1.8,-1.95 2.71,-2.46 0.91,-0.51 2.2,-0.83 2.89,-0.58 0.78,0.28 1.34,1.36 1.34,1.36"
       fill="#ffffff"
       stroke="#7a7a7a"
       stroke-miterlimit="10"
       id="path6" />
    <path
       d="m 41.812037,77.860714 c 0,0 -2.26,1.42 -3.62,0.97 -1.36,-0.45 -1.3,-1.34 -1.3,-3.4 v -54.86 c 0,0 -0.36,-1.27 0.28,-2.46 0.46,-0.85 1.8,-1.95 2.71,-2.46 0.91,-0.51 2.2,-0.83 2.89,-0.58 0.78,0.28 1.34,1.36 1.34,1.36"
       fill="#ffffff"
       stroke="#7a7a7a"
       stroke-miterlimit="10"
       id="path8" />
    <path
       d="m 46.682037,78.027602 c 0,0 -2.4,1.58 -3.75,1.13 -1.35,-0.45 -1.3,-1.34 -1.3,-3.4 v -54.87 c 0,0 -0.36,-1.27 0.28,-2.46 0.46,-0.85 1.8,-1.95 2.71,-2.46 0.91,-0.51 2.2,-0.83 2.89,-0.58 0.78,0.28 1.34,1.36 1.34,1.36"
       fill="#ffffff"
       stroke="#7a7a7a"
       stroke-miterlimit="10"
       id="path10" />
    <path
       d="m 51.422037,78.50449 c 0,0 -2.22,1.41 -3.57,0.97 -1.35,-0.44 -1.3,-1.34 -1.3,-3.4 v -54.87 c 0,0 -0.36,-1.27 0.28,-2.46 0.46,-0.85 1.8,-1.95 2.71,-2.46 0.91,-0.51 2.2,-0.83 2.89,-0.58 0.78,0.28 1.34,1.36 1.34,1.36"
       fill="#ffffff"
       stroke="#7a7a7a"
       stroke-miterlimit="10"
       id="path12" />
    <path
       d="m 56.162037,78.652156 c 0,0 -2.28,1.5 -3.63,1.06 -1.35,-0.44 -1.3,-1.34 -1.3,-3.4 v -54.87 c 0,0 -0.36,-1.27 0.28,-2.46 0.46,-0.85 1.8,-1.95 2.71,-2.46 0.91,-0.51 2.2,-0.83 2.89,-0.58 0.78,0.28 1.34,1.36 1.34,1.36"
       fill="#ffffff"
       stroke="#7a7a7a"
       stroke-miterlimit="10"
       id="path14" />
    <path
       d="m 61.232037,79.296824 c 0,0 -2.32,1.21 -3.67,0.76 -1.35,-0.45 -1.3,-1.34 -1.3,-3.4 v -54.86 c 0,0 -0.36,-1.27 0.28,-2.46 0.46,-0.85 1.8,-1.95 2.71,-2.46 0.91,-0.51 2.2,-0.83 2.89,-0.58 0.78,0.28 1.34,1.36 1.34,1.36"
       fill="#ffffff"
       stroke="#7a7a7a"
       stroke-miterlimit="10"
       id="path16" />
    <path
       d="m 65.132037,79.839936 c 0,0 -1.58,1.03 -2.93,0.57 -1.35,-0.46 -1.3,-1.35 -1.3,-3.44 v -55.43 c 0,0 -0.36,-1.29 0.28,-2.48 0.46,-0.86 1.8,-1.97 2.71,-2.48 0.91,-0.51 2.2,-0.84 2.89,-0.59 0.78,0.28 1.34,1.38 1.34,1.38"
       fill="#ffffff"
       stroke="#7a7a7a"
       stroke-miterlimit="10"
       id="path18" />
    <path
       d="m 69.462037,80.23227 c 0,0 -1.57,0.95 -2.93,0.49 -1.36,-0.46 -1.3,-1.35 -1.3,-3.44 v -55.43 c 0,0 -0.36,-1.29 0.28,-2.48 0.46,-0.86 1.8,-1.97 2.71,-2.48 0.91,-0.51 2.2,-0.84 2.89,-0.59 0.78,0.28 1.34,1.38 1.34,1.38"
       fill="#ffffff"
       stroke="#7a7a7a"
       stroke-miterlimit="10"
       id="path20" />
    <path
       d="m 69.462037,80.284308 c 0,0 -0.27,-57.63 0.2,-59.35 0.47,-1.72 1.82,-2.91 3.28,-3.74 1.84,-1.05 2.54,-1.22 4.02,-0.42 0.69,0.37 0.378539,60.3105 0.218539,60.7805 0.01331,1.221119 -3.759768,6.281269 -7.718539,2.7295 z"
       fill="#ffffff"
       stroke="#7a7a7a"
       stroke-miterlimit="10"
       id="path22"
       sodipodi:nodetypes="cscccc" />
    <line
       x1="73.572037"
       y1="23.074305"
       x2="73.572037"
       y2="74.094292"
       fill="none"
       stroke="#bdbcbc"
       stroke-linecap="round"
       stroke-miterlimit="10"
       stroke-width="1.1"
       id="line24" />
    <g
       id="g539"
       transform="rotate(0.84926398,-130.35627,5.078299)">
      <rect
         class="cls-4"
         x="73.110168"
         y="16.82596"
         width="4.2800002"
         height="3.73"
         rx="0.86000001"
         ry="0.86000001"
         id="rect272"
         style="fill:#606060" />
      <rect
         class="cls-3"
         x="75.807411"
         y="16.319706"
         width="9.2729912"
         height="5.0289268"
         rx="0.95999998"
         ry="0.95999998"
         id="rect274"
         style="fill:#ffffff;stroke:#7a7a7a;stroke-width:1.5px;stroke-miterlimit:10" />
      <ellipse
         class="cls-1"
         cx="84.570412"
         cy="18.708635"
         rx="1.45"
         ry="2.6400001"
         id="ellipse276"
         style="fill:#ffffff;stroke:#7a7a7a;stroke-miterlimit:10" />
    </g>
  </g>
</svg>
